<?xml version="1.0" encoding="UTF-8"?>
<svg version="1.1" xmlns="http://www.w3.org/2000/svg" width="32" height="32">
<path d="M0 0 C4.1379219 2.06896095 6.27242495 3.75109921 8 8 C8.73651586 12.71027588 8.42246633 16.17015542 6.25 20.4375 C3.65674316 23.3909314 1.74512429 24.72712602 -2.1484375 25.3359375 C-7.60274135 25.43162704 -10.75007465 24.74398185 -15 21 C-17.37302167 18.07327328 -17.95966626 16.31690796 -18.4375 12.5625 C-17.83020996 7.617424 -15.85027224 4.65737151 -12.1640625 1.35546875 C-8.34759311 -1.03499132 -4.34643702 -0.62385768 0 0 Z " fill="#102C1F" transform="translate(21,3)"/>
<path d="M0 0 C1.65 0 3.3 0 5 0 C5.33 1.32 5.66 2.64 6 4 C3.36 4 0.72 4 -2 4 C-1.34 2.68 -0.68 1.36 0 0 Z " fill="#4C6E63" transform="translate(14,13)"/>
</svg>
