<?xml version="1.0" encoding="UTF-8"?>
<svg version="1.1" xmlns="http://www.w3.org/2000/svg" width="512" height="512">
<path d="M0 0 C1.2230071 -0.00679667 1.2230071 -0.00679667 2.47072142 -0.01373065 C5.20048397 -0.02638232 7.9300472 -0.02475378 10.65983582 -0.02310181 C12.61801408 -0.02908659 14.57618999 -0.03589203 16.53436279 -0.04345703 C21.85262868 -0.06112972 27.17083022 -0.06581296 32.48912263 -0.0670886 C35.81244403 -0.06851009 39.13574906 -0.07277966 42.45906639 -0.07808304 C54.05497146 -0.09658781 65.65083054 -0.10475313 77.24674988 -0.10317993 C88.05255072 -0.10197855 98.85815181 -0.12307916 109.6639021 -0.15466726 C118.94389085 -0.18082755 128.22381434 -0.19154732 137.50383967 -0.19026911 C143.04516062 -0.18975939 148.58630408 -0.19544839 154.12758827 -0.21662521 C159.34053829 -0.2360032 164.55314143 -0.23613492 169.76610374 -0.22159195 C171.67685834 -0.21950219 173.58763462 -0.22421469 175.49835205 -0.23631287 C178.11218162 -0.25178796 180.7248185 -0.24244266 183.33862305 -0.22705078 C184.09009938 -0.23733791 184.8415757 -0.24762503 185.61582404 -0.25822389 C192.06190915 -0.174663 197.1382845 1.9746199 202.06681824 6.12680054 C202.59662292 6.75070679 203.12642761 7.37461304 203.67228699 8.01742554 C204.2149823 8.63101929 204.75767761 9.24461304 205.31681824 9.87680054 C210.22378663 17.47949586 210.24395237 24.46286753 210.04728699 33.26742554 C210.03375183 34.4237146 210.02021667 35.58000366 210.00627136 36.77133179 C209.97115743 39.60385557 209.92197699 42.43538861 209.85978699 45.26742554 C210.5494606 45.25854309 211.23913422 45.24966064 211.94970703 45.24050903 C218.4948843 45.15988343 225.03992011 45.09922015 231.5854845 45.06017685 C234.94951624 45.03942832 238.31313279 45.01134962 241.67692566 44.96566772 C245.55699855 44.9167985 249.43649225 44.89437548 253.31681824 44.87680054 C254.50684952 44.8561554 255.6968808 44.83551025 256.92297363 44.8142395 C268.82308216 44.8110867 278.1831887 47.98059632 286.85978699 56.26742554 C294.86868077 64.86626015 297.46757891 74.2750863 297.36772156 85.81150818 C297.3770815 87.49313943 297.3770815 87.49313943 297.38663054 89.20874304 C297.40251099 92.94344665 297.38997502 96.67749314 297.37736511 100.41220093 C297.38278839 103.09856555 297.38976815 105.78488578 297.39860535 108.47123718 C297.41634373 114.99681931 297.41257177 121.52221688 297.40095478 128.04780609 C297.39190299 133.35309312 297.39070399 138.6583286 297.39505005 143.96362114 C297.39566298 144.72011671 297.39627591 145.47661229 297.39690742 146.25603197 C297.39818638 147.79306306 297.39948324 149.33009414 297.40079778 150.86712521 C297.41218966 165.26202014 297.39911138 179.65681298 297.37759632 194.05169117 C297.35972295 206.39196425 297.36283407 218.73208681 297.38127136 231.07235718 C297.40269647 245.41903088 297.41109497 259.76561526 297.39882231 274.11230272 C297.39754817 275.64321703 297.39629069 277.17413136 297.39505005 278.7050457 C297.3941244 279.83477059 297.3941244 279.83477059 297.39318004 280.98731821 C297.38973233 286.28417562 297.3955429 291.58097618 297.40496826 296.87782478 C297.41620774 303.33581134 297.41310731 309.79360351 297.39184529 316.25156791 C297.38136135 319.54393766 297.37933485 322.83591834 297.39044189 326.1282959 C297.40138768 329.70262793 297.38764366 333.27605219 297.36772156 336.85032654 C297.38110589 338.39995113 297.38110589 338.39995113 297.39476061 339.98088127 C297.28803374 349.86678991 293.71430865 358.09205393 286.85978699 365.26742554 C280.17795857 370.79571355 273.98497998 374.51182892 265.11784649 374.52469444 C263.42577242 374.53436778 263.42577242 374.53436778 261.69951504 374.54423654 C259.85561121 374.53959073 259.85561121 374.53959073 257.97445679 374.53485107 C256.66077647 374.53938219 255.34709615 374.5439133 253.99360734 374.54858172 C250.35320685 374.5608034 246.71289831 374.56055224 243.07248199 374.55819297 C239.14393887 374.55778459 235.21542515 374.56882593 231.28689575 374.57830811 C223.5924047 374.59491442 215.89794429 374.60041748 208.20343681 374.60153286 C201.94840812 374.60248349 195.69338953 374.60659455 189.43836403 374.61293411 C171.70071461 374.63054538 153.96308939 374.63977314 136.22543117 374.63827316 C135.26937552 374.63819325 134.31331988 374.63811334 133.32829285 374.63803101 C132.37106869 374.63794924 131.41384454 374.63786748 130.42761359 374.63778324 C114.91436991 374.63697034 99.40122332 374.65610947 83.88800772 374.68430774 C67.95572255 374.71303904 52.02348473 374.7268479 36.09117299 374.72512019 C27.14775798 374.72445638 18.20444476 374.72994467 9.26105309 374.75147629 C1.64650601 374.7696913 -5.96789314 374.7740328 -13.58245257 374.76045744 C-17.46614885 374.75392942 -21.34956134 374.75380434 -25.23323059 374.77116394 C-29.44701223 374.7898051 -33.66013741 374.77733595 -37.87393188 374.76190186 C-39.09650894 374.77218898 -40.319086 374.78247611 -41.57871085 374.79307497 C-52.1071208 374.70782244 -60.45483113 371.60915213 -68.14021301 364.26742554 C-75.41169944 355.47866044 -77.44045498 348.46338096 -77.41436768 337.22454834 C-77.41960435 336.10899523 -77.42484103 334.99344213 -77.4302364 333.84408438 C-77.44524408 330.10413974 -77.44594174 326.36433183 -77.4466095 322.62435913 C-77.45423055 319.94346545 -77.46260927 317.26258325 -77.47183228 314.58169556 C-77.49465618 307.29635407 -77.50260027 300.01104177 -77.50765872 292.72566938 C-77.51091919 288.17296002 -77.51744385 283.62025907 -77.52466011 279.06755447 C-77.54422371 266.45200308 -77.56062897 253.8364595 -77.56353664 241.22089195 C-77.56372421 240.41399594 -77.56391178 239.60709993 -77.56410504 238.77575252 C-77.56447128 237.14010723 -77.56483498 235.50446195 -77.56519615 233.86881666 C-77.56537896 233.05692497 -77.56556177 232.24503328 -77.56575012 231.40853882 C-77.56593067 230.59565111 -77.56611122 229.78276339 -77.56629724 228.94524272 C-77.56983689 215.78134304 -77.59684719 202.61760715 -77.63424801 189.45376424 C-77.67237664 175.92499914 -77.69169446 162.39631519 -77.69199616 148.86749518 C-77.69257975 141.27707403 -77.70100814 133.68684822 -77.72999382 126.09647751 C-77.75456895 119.6315209 -77.76174961 113.16683084 -77.74674629 106.70184009 C-77.73960177 103.40700478 -77.74307683 100.11280172 -77.76315689 96.81800461 C-77.78365297 93.23561698 -77.77304261 89.65457627 -77.75494385 86.07220459 C-77.76814382 85.04513157 -77.78134378 84.01805856 -77.79494375 82.95986211 C-77.6716747 72.22189159 -73.83945063 62.99259993 -66.38240051 55.24008179 C-57.22671936 47.18499646 -48.14406605 44.93020737 -36.20271301 45.14242554 C-34.74768372 45.15596069 -34.74768372 45.15596069 -33.26325989 45.16976929 C-30.88864895 45.19316447 -28.51456526 45.22594378 -26.14021301 45.26742554 C-26.16116028 44.56246948 -26.18210754 43.85751343 -26.20368958 43.13119507 C-26.2877002 39.88508823 -26.33913998 36.63921114 -26.39021301 33.39242554 C-26.42372864 32.28383179 -26.45724426 31.17523804 -26.49177551 30.03305054 C-26.59253146 21.46879537 -25.51427265 14.37182724 -19.95661926 7.61117554 C-19.2128302 7.00273804 -18.46904114 6.39430054 -17.70271301 5.76742554 C-16.59089661 4.82383179 -16.59089661 4.82383179 -15.45661926 3.86117554 C-10.44421298 0.41250477 -5.96832517 -0.02438128 0 0 Z M-9.01521301 18.76742554 C-11.82885171 22.51894379 -11.27438312 26.87061034 -11.2537384 31.31893921 C-11.25388443 32.13867722 -11.25403046 32.95841522 -11.25418091 33.80299377 C-11.25348397 36.51382082 -11.24570179 39.22457924 -11.23786926 41.93539429 C-11.23600431 43.81440697 -11.23458077 45.69342013 -11.23358154 47.57243347 C-11.22976249 52.51917868 -11.21993739 57.46589456 -11.20887756 62.41262817 C-11.19865032 67.45992638 -11.1940811 72.50722933 -11.18904114 77.55453491 C-11.1783146 87.45884675 -11.16072272 97.36312912 -11.14021301 107.26742554 C-0.25021301 107.26742554 10.63978699 107.26742554 21.85978699 107.26742554 C22.51978699 102.31742554 23.17978699 97.36742554 23.85978699 92.26742554 C27.2432684 85.40901727 31.25885649 80.90535675 38.47787666 77.90447044 C44.08194058 76.40565651 50.02824863 76.82813323 55.79118347 76.83505249 C57.30944615 76.82602784 58.82770155 76.81569889 60.34594727 76.8041687 C64.45285919 76.77665502 68.55963266 76.76732187 72.66662478 76.76131463 C76.96414571 76.75191626 81.2615638 76.7257117 85.559021 76.7013092 C93.69027352 76.65768072 101.82150604 76.62911135 109.95283991 76.60598582 C119.21286117 76.57891456 128.47277879 76.53500424 137.73272598 76.4896971 C156.7750249 76.39690313 175.81735123 76.32519838 194.85978699 76.26742554 C194.93586972 68.81103045 194.98840075 61.35473554 195.02458191 53.89804077 C195.03966562 51.36154438 195.0601353 48.82507406 195.08610535 46.28866577 C195.1225058 42.64219732 195.13951781 38.99607381 195.15275574 35.34945679 C195.16823959 34.21595291 195.18372345 33.08244904 195.19967651 31.91459656 C195.19990311 30.85387436 195.2001297 29.79315216 195.20036316 28.70028687 C195.20702499 27.76985062 195.21368683 26.83941437 195.22055054 25.88078308 C194.66639217 21.86648079 192.89914533 19.20620081 189.92228699 16.51742554 C185.65845103 13.93328253 181.30550763 14.12095737 176.44052124 14.12698364 C175.69066887 14.12401252 174.94081649 14.1210414 174.16824132 14.11798024 C171.65419772 14.10930477 169.1402018 14.10778597 166.62614441 14.10629272 C164.82412616 14.10166376 163.0221089 14.09663899 161.22009277 14.09124756 C156.32332195 14.07812968 151.42656484 14.07167987 146.5297792 14.0672369 C143.47030373 14.06430537 140.410832 14.06020043 137.35135841 14.05573273 C127.77841973 14.04205982 118.20548961 14.03239198 108.63254184 14.02853084 C97.58284901 14.02404953 86.53327986 14.00649735 75.48362464 13.97753024 C66.9416768 13.95591458 58.39976376 13.94582663 49.85778886 13.94448972 C44.75637293 13.94344167 39.65507328 13.93753378 34.55368614 13.9196701 C29.7544732 13.90319131 24.95546399 13.90103301 20.15623283 13.90980911 C18.39663904 13.91057957 16.6370343 13.90623562 14.87746811 13.89635086 C12.47140465 13.8836289 10.0660625 13.88950916 7.66000366 13.89993286 C6.96718754 13.89187646 6.27437143 13.88382005 5.56056088 13.87551951 C-0.01726976 13.93185945 -4.6120437 15.24489009 -9.01521301 18.76742554 Z M-55.38240051 66.23226929 C-61.78557194 73.96815821 -63.28088096 80.35112691 -63.23786926 90.41586304 C-63.23645432 91.0732547 -63.23503937 91.73064636 -63.23358154 92.40795898 C-63.22803064 94.48616285 -63.21548766 96.56425481 -63.20271301 98.64242554 C-63.19769165 100.06039272 -63.19312986 101.47836161 -63.18904114 102.89633179 C-63.17807738 106.35339876 -63.16084723 109.8104012 -63.14021301 113.26742554 C-62.35042053 112.91591431 -61.56062805 112.56440308 -60.74690247 112.20223999 C-52.75127349 108.85483428 -45.95403667 107.5057659 -37.32771301 107.45492554 C-33.63583801 107.39305054 -29.94396301 107.33117554 -26.14021301 107.26742554 C-26.14021301 91.75742554 -26.14021301 76.24742554 -26.14021301 60.26742554 C-42.67326105 59.05200354 -42.67326105 59.05200354 -55.38240051 66.23226929 Z M209.85978699 60.26742554 C209.85978699 65.54742554 209.85978699 70.82742554 209.85978699 76.26742554 C211.83720886 76.28160522 213.81463074 76.29578491 215.85197449 76.31039429 C217.80155034 76.34520814 219.75112705 76.38020408 221.7006073 76.42001343 C223.69095098 76.45417319 225.68167003 76.46361698 227.67228699 76.47250366 C236.83905165 76.68083922 244.37751629 77.80093748 251.07853699 84.47836304 C251.50134949 85.19250366 251.92416199 85.90664429 252.35978699 86.64242554 C252.80322449 87.35140991 253.24666199 88.06039429 253.70353699 88.79086304 C256.21900578 94.17872526 257.11159176 99.3015461 257.17863464 105.2124939 C257.18868027 105.86700531 257.19872589 106.52151672 257.20907593 107.19586182 C257.23966568 109.33298968 257.25687454 111.46999375 257.27384949 113.60726929 C257.29258071 115.09943184 257.31215556 116.59158402 257.33253479 118.08372498 C257.3836558 121.99133156 257.42338803 125.8989724 257.4606781 129.80673218 C257.50084407 133.80217831 257.55187867 137.79748438 257.60197449 141.79281616 C257.69849626 149.61758953 257.78297617 157.44243121 257.85978699 165.26742554 C258.80950378 165.38714722 259.75922058 165.5068689 260.73771667 165.63021851 C261.98971863 165.7966687 263.24172058 165.9631189 264.53166199 166.13461304 C265.77012878 166.29558472 267.00859558 166.4565564 268.28459167 166.62240601 C272.30453721 167.34766523 275.57811035 168.60355449 279.18791199 170.46273804 C280.85089983 171.41198854 280.85089983 171.41198854 282.85978699 171.26742554 C282.90622382 159.94910455 282.94171377 148.63080642 282.96341133 137.3124094 C282.97382753 132.05625087 282.98794712 126.80015776 283.01066589 121.54403687 C283.03247154 116.46713052 283.04437188 111.39028691 283.04954147 106.31333733 C283.05322339 104.3809606 283.06041314 102.44858712 283.0712471 100.51623726 C283.08586471 97.79984365 283.08776066 95.08370596 283.08683777 92.36727905 C283.0976236 91.18151779 283.0976236 91.18151779 283.10862732 89.97180176 C283.07594741 81.02343315 281.80254867 73.17488178 275.21916199 66.63851929 C270.23429964 62.14130652 266.09353486 60.00887957 259.24333191 60.04037476 C258.14256821 60.04052582 257.0418045 60.04067688 255.90768433 60.04083252 C254.73043289 60.05115509 253.55318146 60.06147766 252.34025574 60.07211304 C251.126548 60.07494293 249.91284027 60.07777283 248.66235352 60.08068848 C244.79056387 60.09187245 240.91900658 60.11697423 237.04728699 60.14242554 C234.42033721 60.15245762 231.79338379 60.16158307 229.16642761 60.16976929 C222.73079138 60.19180603 216.29532856 60.22632407 209.85978699 60.26742554 Z M37.85978699 96.26742554 C36.6570588 98.67288192 36.75907227 100.21739506 36.79728699 102.89242554 C36.80631042 103.70969116 36.81533386 104.52695679 36.82463074 105.36898804 C36.8362323 105.99547241 36.84783386 106.62195679 36.85978699 107.26742554 C38.04796524 107.27289398 38.04796524 107.27289398 39.26014709 107.2784729 C46.76253546 107.3165005 54.26443531 107.37351859 61.7665081 107.45132828 C65.62248697 107.49066628 69.47824215 107.52292105 73.33439636 107.53842163 C77.06295602 107.5536794 80.79090017 107.58828314 84.51918411 107.63573456 C85.93431847 107.65045523 87.34954076 107.65846115 88.76475143 107.65930939 C99.51694463 107.67222325 109.13717255 108.78589843 117.28215027 116.40170288 C120.50533028 120.21345492 122.60354428 124.62465284 124.79728699 129.07992554 C125.31379822 130.09369263 125.83030945 131.10745972 126.36247253 132.15194702 C128.73260711 136.83869344 131.01703805 141.55261035 133.16447449 146.34555054 C133.50873474 147.10891724 133.852995 147.87228394 134.20768738 148.65878296 C134.82667948 150.05202437 135.42901605 151.45285454 136.00993347 152.86239624 C138.21741658 157.89015926 141.30874038 161.1824703 145.85978699 164.26742554 C149.84929528 165.59726163 153.67067754 165.39817227 157.82926941 165.38095093 C159.20517998 165.38116997 159.20517998 165.38116997 160.60888672 165.38139343 C163.64436702 165.38069611 166.67978614 165.3729121 169.71525574 165.36508179 C171.81847093 165.36321697 173.92168656 165.36179337 176.02490234 165.36079407 C181.56348365 165.35697393 187.10203878 165.3471479 192.64060974 165.33609009 C198.29113918 165.32586518 203.94167284 165.32129413 209.59220886 165.31625366 C220.68141308 165.30552521 231.77059786 165.28845479 242.85978699 165.26742554 C242.92941004 156.89613446 242.98266043 148.52496511 243.0152235 140.15345573 C243.03085506 136.26588563 243.05204702 132.37851416 243.08610535 128.49105835 C243.118789 124.73685895 243.13665888 120.98285018 243.14441872 117.22851944 C243.14994613 115.79882941 243.16073989 114.36914937 243.17697716 112.93954086 C243.19886857 110.93158969 243.20001339 108.92344523 243.20036316 106.91537476 C243.20702499 105.77398041 243.21368683 104.63258606 243.22055054 103.456604 C242.72170424 99.04676304 241.3715014 95.80115286 238.23484898 92.61882591 C234.92059041 90.7330266 231.84127272 90.84597894 228.13008118 90.87301636 C227.34685482 90.86692525 226.56362846 90.86083415 225.75666797 90.85455847 C223.12959843 90.83789627 220.50301188 90.84270881 217.87590027 90.84750366 C215.99343867 90.84016516 214.11098158 90.83157957 212.22853088 90.82183838 C207.11278583 90.79958974 201.99720169 90.7966934 196.88141489 90.79858589 C192.6119712 90.79870545 188.34256179 90.79014734 184.07312763 90.78180838 C174.00085158 90.76256194 163.92865842 90.75969488 153.85636902 90.76644897 C143.46345345 90.77308982 133.07089279 90.75022639 122.67804921 90.71313524 C113.7573333 90.68245245 104.83673164 90.67107671 95.91596401 90.67497206 C90.58704183 90.67704116 85.25839573 90.67153553 79.92952347 90.64707947 C74.91760291 90.62483867 69.90625975 90.62666805 64.8943367 90.64700699 C63.05530856 90.65042184 61.21624176 90.64530751 59.37726593 90.63102341 C56.86532259 90.61285914 54.3553439 90.62555729 51.84346008 90.64596558 C50.75317527 90.6271888 50.75317527 90.6271888 49.64086449 90.6080327 C43.99154662 90.70635638 41.68659202 92.40682618 37.85978699 96.26742554 Z M-58.01521301 129.26742554 C-62.83298692 136.0689887 -63.29112224 142.1577285 -63.27392578 150.40727234 C-63.27619134 151.21050861 -63.27845689 152.01374488 -63.2807911 152.84132165 C-63.28710484 155.52414252 -63.28630343 158.20691253 -63.28547668 160.88973999 C-63.28846982 162.81688502 -63.2918727 164.74402945 -63.2956543 166.6711731 C-63.3044829 171.90059737 -63.30683194 177.13000527 -63.30747008 182.35943627 C-63.30818124 185.62832512 -63.31031682 188.89720982 -63.3129673 192.16609764 C-63.32221701 203.57512043 -63.32630266 214.98413154 -63.32551575 226.39315796 C-63.32491508 237.01996582 -63.33546569 247.6467229 -63.35125941 258.27351791 C-63.36434474 267.40406734 -63.36969922 276.53460019 -63.36906034 285.66515893 C-63.36880564 291.11534071 -63.37164135 296.56547737 -63.38223839 302.0156498 C-63.39193603 307.1431723 -63.3919871 312.27060667 -63.38472176 317.39813232 C-63.38367798 319.27621273 -63.38602646 321.15429868 -63.39208221 323.03236961 C-63.39983457 325.60389172 -63.39513601 328.1751119 -63.38745117 330.74662781 C-63.39259474 331.48283633 -63.3977383 332.21904485 -63.40303773 332.97756273 C-63.34649681 341.58937839 -62.06473292 348.29504766 -56.00349426 354.60726929 C-50.36448801 359.6315411 -43.97993547 360.39044885 -36.67659187 360.39605999 C-35.07764444 360.40089666 -35.07764444 360.40089666 -33.44639504 360.40583104 C-32.28648076 360.40428244 -31.12656649 360.40273383 -29.9315033 360.40113831 C-28.69062136 360.40340386 -27.44973942 360.40566942 -26.17125499 360.40800363 C-22.73416022 360.41323479 -19.29711781 360.4139892 -15.86002278 360.41280925 C-12.15032531 360.412605 -8.44063561 360.41812633 -4.73094177 360.42286682 C2.53407838 360.43116831 9.79909042 360.43392143 17.06411491 360.4344792 C22.9697019 360.43495456 28.87528621 360.4370103 34.78087234 360.44017982 C51.52750814 360.44898471 68.27413753 360.45359941 85.02077566 360.45284935 C86.37460433 360.45278942 86.37460433 360.45278942 87.75578308 360.45272827 C88.65943848 360.45268739 89.56309388 360.45264651 90.49413277 360.45260439 C105.14150679 360.45219788 119.78885512 360.46176922 134.4362217 360.47586664 C149.47917719 360.49023048 164.52212015 360.49713683 179.56508267 360.49627286 C188.00932534 360.49594091 196.45354106 360.49868706 204.89777756 360.50945091 C212.08668757 360.51855597 219.2755584 360.52073109 226.46447168 360.51394149 C230.13126437 360.51067643 233.79798191 360.51061911 237.46476746 360.51929474 C241.44224977 360.52860861 245.41962233 360.52238339 249.39710999 360.5146637 C251.13028923 360.52237904 251.13028923 360.52237904 252.8984822 360.53025025 C263.35350373 360.48536472 270.85350875 359.15992473 278.60978699 351.57992554 C284.1532039 344.42603951 283.14640129 334.26996028 283.11857605 325.72055054 C283.12129125 324.37423514 283.12485514 323.02792124 283.12919617 321.68161011 C283.1382596 318.04938566 283.13480106 314.41727571 283.128438 310.78504944 C283.12334651 306.96960154 283.12807816 303.15416292 283.13121033 299.3387146 C283.13484084 292.9334234 283.13007496 286.52817845 283.12052917 280.12289429 C283.10964638 272.73552367 283.11317261 265.34826348 283.12418199 257.96089554 C283.133281 251.59883306 283.13452739 245.23680367 283.12930465 238.87473679 C283.12619929 235.08345481 283.12573592 231.29222461 283.13237762 227.50094604 C283.13818863 223.93529637 283.1340861 220.36978798 283.12258911 216.80415344 C283.11871743 214.88440135 283.12459604 212.96463719 283.13084412 211.04489136 C283.07258938 198.14747748 283.07258938 198.14747748 277.51258183 186.82466793 C270.75972088 180.46220775 262.84920504 179.54660013 253.9752655 179.67147827 C252.83079956 179.66741974 251.68633362 179.66336121 250.50718689 179.65917969 C248.03825428 179.65368648 245.5692748 179.65960271 243.10038948 179.67584038 C239.18546045 179.70136637 235.27157887 179.69642617 231.3565979 179.6839447 C223.74994194 179.66336799 216.14358058 179.67882301 208.53694153 179.69941711 C198.19909091 179.72634598 187.86156119 179.73243586 177.52371025 179.7044239 C173.67988907 179.70107693 169.83672457 179.72223791 165.99298096 179.74482727 C163.61988688 179.7423145 161.24679361 179.73875298 158.873703 179.73397827 C157.8162236 179.74686386 156.7587442 179.75974945 155.66921997 179.77302551 C147.10104184 179.71584174 139.7960258 177.79255987 132.54728699 173.14242554 C127.03968731 167.25057472 123.62627343 159.9736014 120.23869324 152.72055054 C119.92735947 152.05544464 119.6160257 151.39033875 119.29525757 150.70507812 C118.0085212 147.94660575 116.72634461 145.18646109 115.46696472 142.41537476 C110.54797904 131.40089484 110.54797904 131.40089484 101.85978699 123.26742554 C98.66377646 122.20208869 96.36981984 122.13375483 93.01013184 122.12025452 C91.17858803 122.10952156 91.17858803 122.10952156 89.31004333 122.09857178 C87.95463587 122.09573154 86.59922814 122.09301981 85.24382019 122.09042358 C83.81795079 122.08415778 82.39208302 122.07751087 80.96621704 122.07051086 C76.28101232 122.04947902 71.59580731 122.03910816 66.91056824 122.02914429 C65.2964088 122.02509617 63.68224953 122.02097923 62.06809044 122.0167942 C54.48299293 121.99774314 46.89790514 121.98351287 39.31278831 121.97518224 C30.56433573 121.96541477 21.8161365 121.93910788 13.06777316 121.89868134 C6.30161175 121.86849055 -0.46447716 121.85371049 -7.23070461 121.85040122 C-11.26973864 121.84805377 -15.30850199 121.83913365 -19.34746361 121.81394005 C-23.15031427 121.79060271 -26.95271715 121.78644854 -30.75562096 121.79670143 C-32.14714043 121.79719556 -33.53868236 121.79091136 -34.93013382 121.77714539 C-44.11415572 121.69141034 -51.58839322 121.95616036 -58.01521301 129.26742554 Z " fill="#29276C" transform="translate(146.1402130126953,68.73257446289063)"/>
<path d="M0 0 C1.2230071 -0.00679667 1.2230071 -0.00679667 2.47072142 -0.01373065 C5.20048397 -0.02638232 7.9300472 -0.02475378 10.65983582 -0.02310181 C12.61801408 -0.02908659 14.57618999 -0.03589203 16.53436279 -0.04345703 C21.85262868 -0.06112972 27.17083022 -0.06581296 32.48912263 -0.0670886 C35.81244403 -0.06851009 39.13574906 -0.07277966 42.45906639 -0.07808304 C54.05497146 -0.09658781 65.65083054 -0.10475313 77.24674988 -0.10317993 C88.05255072 -0.10197855 98.85815181 -0.12307916 109.6639021 -0.15466726 C118.94389085 -0.18082755 128.22381434 -0.19154732 137.50383967 -0.19026911 C143.04516062 -0.18975939 148.58630408 -0.19544839 154.12758827 -0.21662521 C159.34053829 -0.2360032 164.55314143 -0.23613492 169.76610374 -0.22159195 C171.67685834 -0.21950219 173.58763462 -0.22421469 175.49835205 -0.23631287 C178.11218162 -0.25178796 180.7248185 -0.24244266 183.33862305 -0.22705078 C184.09009938 -0.23733791 184.8415757 -0.24762503 185.61582404 -0.25822389 C192.06190915 -0.174663 197.1382845 1.9746199 202.06681824 6.12680054 C202.59662292 6.75070679 203.12642761 7.37461304 203.67228699 8.01742554 C204.2149823 8.63101929 204.75767761 9.24461304 205.31681824 9.87680054 C210.21802421 17.47056777 210.26780923 24.50357475 210.15275574 33.29867554 C210.14851089 34.53033447 210.14426605 35.76199341 210.13989258 37.03097534 C210.12317447 40.94335298 210.08553361 44.85520503 210.04728699 48.76742554 C210.0305315 51.42887633 210.01854453 54.09032219 210.00627136 56.75180054 C209.97329334 63.25718652 209.92316197 69.76226846 209.85978699 76.26742554 C210.68591492 76.24124146 211.51204285 76.21505737 212.36320496 76.18807983 C215.47560486 76.10204779 218.58739209 76.03978907 221.7006073 75.99276733 C223.69158052 75.95572931 225.68200352 75.89214326 227.67228699 75.82797241 C235.80643878 75.72526848 242.15198276 76.38685448 248.85978699 81.26742554 C256.83497505 89.3622721 258.24242565 98.42580949 258.22532654 109.47665405 C258.21332791 110.90691526 258.20084529 112.33717248 258.18791199 113.76742554 C258.18484913 115.25432137 258.18297702 116.74122009 258.18223572 118.2281189 C258.17766004 121.32450559 258.16333089 124.42062821 258.14103699 127.51693726 C258.1125581 131.49281519 258.10180275 135.46848772 258.09735489 139.44445801 C258.09321056 142.50525982 258.08340462 145.56601993 258.0714798 148.62680054 C258.06577363 150.0940823 258.06101607 151.56136807 258.05721283 153.02865601 C258.05037512 155.06790569 258.03584953 157.10712529 258.0209198 159.14633179 C258.0106778 160.88765381 258.0106778 160.88765381 258.00022888 162.66415405 C257.85978699 165.26742554 257.85978699 165.26742554 256.85978699 166.26742554 C254.50665144 166.34014295 252.1514503 166.35113422 249.79728699 166.32992554 C248.50693542 166.3209021 247.21658386 166.31187866 245.88713074 166.30258179 C244.38859558 166.28517944 244.38859558 166.28517944 242.85978699 166.26742554 C242.85098763 165.0471315 242.85098763 165.0471315 242.8420105 163.80218506 C242.78402083 156.12202144 242.71190854 148.44217993 242.62407207 140.76230431 C242.57941254 136.81432526 242.54014695 132.86644835 242.51335144 128.91830444 C242.48727399 125.10555728 242.44684088 121.29320408 242.39660072 117.48070145 C242.37996188 116.02876321 242.36842904 114.57675688 242.36217308 113.12473679 C242.35249894 111.08513183 242.32440333 109.04652796 242.29216003 107.00717163 C242.28105698 105.84801239 242.26995392 104.68885315 242.2585144 103.49456787 C241.80444937 99.81954469 240.79205464 97.41375055 238.85978699 94.26742554 C235.19905021 91.82693435 232.47585207 91.9821637 228.24360657 92 C227.46052907 91.99546889 226.67745157 91.99093777 225.87064445 91.98626935 C223.23822237 91.97357649 220.60600588 91.97524886 217.97355652 91.97689819 C216.08962232 91.97091599 214.20569058 91.96411116 212.32176208 91.95654297 C207.19778743 91.93884437 202.07387953 91.93418596 196.94987726 91.9329114 C192.67542623 91.93101444 188.40099082 91.92365924 184.12654579 91.91656721 C174.04331478 91.90027096 163.96011949 91.89539938 153.87687683 91.89682007 C143.46868095 91.89802182 133.06069233 91.87691618 122.65254891 91.84533274 C113.72253794 91.81919836 104.79259478 91.80845158 95.86254585 91.80973089 C90.52640941 91.81024136 85.19045709 91.80451122 79.85435867 91.78337479 C74.83596389 91.76404022 69.81792975 91.76383514 64.7995224 91.77840805 C62.95684916 91.7805032 61.11415363 91.77575338 59.27151871 91.76368713 C56.75723088 91.74828813 54.24419487 91.75750661 51.72993469 91.77294922 C50.99948319 91.76266209 50.26903168 91.75237497 49.51644528 91.74177611 C44.69706203 91.80725934 42.24294647 92.84590319 38.85978699 96.26742554 C37.71163702 98.56372548 37.5520889 100.3444064 37.29728699 102.89242554 C37.15291199 104.33617554 37.00853699 105.77992554 36.85978699 107.26742554 C31.90978699 107.26742554 26.95978699 107.26742554 21.85978699 107.26742554 C21.41389807 98.57259172 21.71837839 91.03768143 27.66056824 84.19320679 C36.41265378 76.08690619 44.2556705 75.83672785 55.79118347 75.92684937 C57.3094379 75.92769639 58.82769355 75.92721903 60.34594727 75.92552185 C64.45294836 75.92466341 68.55968498 75.94226458 72.66662478 75.96324372 C76.96407644 75.98203576 81.26153459 75.98376295 85.559021 75.98731995 C93.69035225 75.996633 101.82156206 76.02123674 109.95283991 76.05136842 C119.21278473 76.08493548 128.47273544 76.10140423 137.73272598 76.11645472 C156.77514842 76.14778697 175.81745793 76.20053305 194.85978699 76.26742554 C194.79278697 68.81063984 194.70297973 61.35437845 194.59733582 53.89804077 C194.5640881 51.36164585 194.53605574 48.82517698 194.51335144 46.28866577 C194.47980358 42.64194226 194.42748547 38.99589643 194.37150574 35.34945679 C194.36192085 33.64920097 194.36192085 33.64920097 194.35214233 31.91459656 C194.33234818 30.85387436 194.31255402 29.79315216 194.29216003 28.70028687 C194.28105698 27.76985062 194.26995392 26.83941437 194.2585144 25.88078308 C193.7555285 22.58408977 192.97223302 20.86358889 190.85978699 18.26742554 C185.94959583 15.52386673 181.60896086 14.83290779 176.07975769 14.88647461 C174.95113422 14.87945465 174.95113422 14.87945465 173.79971027 14.87229288 C171.29481348 14.86038879 168.79046846 14.86978185 166.28556824 14.87924194 C164.48310529 14.8751742 162.68064484 14.86983118 160.87818909 14.86331177 C155.99392944 14.84965655 151.10986028 14.85492943 146.22559738 14.86444902 C141.10927067 14.87205489 135.99296005 14.86499743 130.87663269 14.86029053 C122.28537575 14.85483569 113.69419623 14.86201749 105.10295105 14.87631226 C95.17643053 14.89263823 85.25009488 14.88734953 75.32357883 14.87083304 C66.79429577 14.85721047 58.26506829 14.85530229 49.73577785 14.86314905 C44.64448454 14.86782131 39.55327806 14.86846267 34.46199036 14.85853958 C29.67502329 14.849861 24.88829412 14.85590818 20.10135269 14.87322235 C18.34660359 14.87718242 16.59183441 14.87606137 14.83709335 14.86943436 C12.43773251 14.86120965 10.03912915 14.87155105 7.63981628 14.88647461 C6.94904653 14.87978244 6.25827677 14.87309028 5.54657459 14.86619532 C0.56634422 14.92608408 -2.78182891 16.02529568 -7.14021301 18.26742554 C-10.65487062 22.25968695 -10.58210416 26.45570881 -10.57258606 31.54598999 C-10.58277771 32.36602005 -10.59296936 33.18605011 -10.60346985 34.03092957 C-10.63357047 36.73092507 -10.64286124 39.43056562 -10.65193176 42.13070679 C-10.66878063 44.00687334 -10.68693116 45.88302861 -10.70632935 47.75917053 C-10.75381287 52.68939694 -10.78363293 57.61957764 -10.80976868 62.54995728 C-10.83958247 67.58412707 -10.88611001 72.61813939 -10.93122864 77.65219116 C-11.01724304 87.52385355 -11.08459667 97.39554836 -11.14021301 107.26742554 C-16.09021301 107.26742554 -21.04021301 107.26742554 -26.14021301 107.26742554 C-26.23314077 96.0968133 -26.30409337 84.92629394 -26.3474617 73.755373 C-26.36828271 68.56751924 -26.39649971 63.37993113 -26.44197083 58.19223022 C-26.48562475 53.18013799 -26.50939133 48.16830032 -26.51972198 43.15603256 C-26.52707838 41.24957145 -26.54144334 39.34312331 -26.56313324 37.43677139 C-26.79792865 15.93334081 -26.79792865 15.93334081 -19.95661926 7.61117554 C-19.2128302 7.00273804 -18.46904114 6.39430054 -17.70271301 5.76742554 C-16.59089661 4.82383179 -16.59089661 4.82383179 -15.45661926 3.86117554 C-10.44421298 0.41250477 -5.96832517 -0.02438128 0 0 Z " fill="#F95B6F" transform="translate(146.1402130126953,68.73257446289063)"/>
<path d="M0 0 C11.19774626 10.21164336 17.9667417 26.19587854 18.83984375 41.19140625 C18.68291839 56.27585625 15.19270021 70.10123735 5.80859375 82.1953125 C5.25816406 82.93265625 4.70773438 83.67 4.140625 84.4296875 C-4.67095693 95.32673978 -18.32942042 103.09676187 -32.19140625 105.1953125 C-51.13499214 106.44652866 -67.92848044 104.11673592 -82.87231445 91.40673828 C-95.46799533 80.17704303 -103.10952239 65.08788501 -104.19140625 48.1953125 C-104.51089225 29.66512459 -98.8829127 14.08408768 -86.00390625 0.4453125 C-60.99206578 -23.47460587 -25.55381545 -21.0443186 0 0 Z M-78.19140625 14.1953125 C-85.77693956 24.23319694 -90.317088 35.43758604 -89.19140625 48.1953125 C-87.72585059 57.7835241 -85.1199357 67.97391988 -77.49609375 74.50390625 C-76.35527344 75.34115234 -76.35527344 75.34115234 -75.19140625 76.1953125 C-74.82789063 75.41027344 -74.464375 74.62523437 -74.08984375 73.81640625 C-71.05406812 67.47241359 -68.05096618 62.28628005 -63.19140625 57.1953125 C-63.78953125 56.5353125 -64.38765625 55.8753125 -65.00390625 55.1953125 C-70.2444685 48.0082557 -71.21190252 40.90878063 -70.19140625 32.1953125 C-68.28419812 25.14353269 -65.28486237 19.76061758 -59.62890625 15.0703125 C-51.83481928 10.81899234 -43.90383068 9.08746788 -35.19140625 11.1953125 C-32.07162298 12.32353601 -29.13781451 13.67624988 -26.19140625 15.1953125 C-25.48757812 15.48535156 -24.78375 15.77539062 -24.05859375 16.07421875 C-21.71205324 17.48312487 -21.22645502 18.69279457 -20.19140625 21.1953125 C-19.84980469 21.8553125 -19.50820312 22.5153125 -19.15625 23.1953125 C-18.81722656 23.8553125 -18.47820312 24.5153125 -18.12890625 25.1953125 C-17.78730469 25.8553125 -17.44570312 26.5153125 -17.09375 27.1953125 C-13.76386062 34.57584655 -14.51059609 42.77891991 -17.2578125 50.21875 C-18.51799234 52.88674581 -20.2519723 54.98837042 -22.19140625 57.1953125 C-22.19140625 57.8553125 -22.19140625 58.5153125 -22.19140625 59.1953125 C-21.10859375 59.96875 -21.10859375 59.96875 -20.00390625 60.7578125 C-16.79057953 63.54269566 -15.3126741 66.23282786 -13.40234375 69.9765625 C-12.17437972 72.22650949 -10.7738451 74.18296252 -9.19140625 76.1953125 C1.08497611 64.24468807 3.62511727 52.82688633 2.98779297 37.37890625 C2.28672157 28.83615062 -2.21732877 21.91851613 -7.19140625 15.1953125 C-8.05765625 13.8959375 -8.05765625 13.8959375 -8.94140625 12.5703125 C-16.98212895 4.08288298 -28.01983757 -1.0512569 -39.6640625 -2.0078125 C-54.73518474 -2.28059299 -67.90358847 3.03238989 -78.19140625 14.1953125 Z M-51.19140625 27.1953125 C-54.31888764 30.56970032 -56.08668419 32.83392568 -56.44140625 37.4453125 C-56.07538385 42.93564847 -54.64491174 45.88023611 -50.56640625 49.5703125 C-46.24652104 51.65025723 -42.90197478 52.02261665 -38.19140625 51.1953125 C-34.48230528 49.40944907 -32.65119324 47.83308155 -30.25390625 44.5078125 C-28.84026518 40.10057858 -29.00630762 36.6476622 -30.19140625 32.1953125 C-32.66770233 27.63892771 -35.67594622 26.28455451 -40.38671875 24.67578125 C-44.40729351 23.60536849 -47.70355946 25.21782793 -51.19140625 27.1953125 Z M-55.23828125 70.8671875 C-59.71685869 75.49381709 -61.47081905 79.84238041 -62.19140625 86.1953125 C-61.11890625 86.6696875 -60.04640625 87.1440625 -58.94140625 87.6328125 C-58.338125 87.89964844 -57.73484375 88.16648437 -57.11328125 88.44140625 C-47.92605434 92.04533876 -36.08983962 91.12014674 -26.9140625 87.94921875 C-25.19708487 87.32242065 -25.19708487 87.32242065 -24.19140625 86.1953125 C-23.44215738 81.07544522 -24.97090511 78.11973639 -27.78515625 74.0234375 C-31.61178968 69.04881404 -35.48907798 67.31695631 -41.5703125 66.33203125 C-46.9778113 66.04997096 -51.0505501 67.44667427 -55.23828125 70.8671875 Z " fill="#FD5B6F" transform="translate(227.19140625,279.8046875)"/>
<path d="M0 0 C0.98858505 -0.0065712 1.9771701 -0.0131424 2.99571228 -0.01991272 C6.28254258 -0.0396993 9.56932709 -0.05132004 12.85620117 -0.0612793 C13.97561285 -0.06535482 15.09502453 -0.06943035 16.24835777 -0.07362938 C22.17273145 -0.09451272 28.09708181 -0.10880478 34.02148438 -0.11816406 C40.15199006 -0.12923491 46.28213341 -0.16363643 52.41251087 -0.20333576 C57.11619254 -0.22943776 61.81978705 -0.23785018 66.52353477 -0.24144554 C68.78382503 -0.2463279 71.04411097 -0.2579884 73.30433083 -0.27648354 C76.46490074 -0.30073883 79.62452245 -0.2999347 82.78515625 -0.29296875 C83.72297943 -0.30577881 84.66080261 -0.31858887 85.62704468 -0.33178711 C91.93470941 -0.2809934 91.93470941 -0.2809934 95.16410828 1.98762512 C97.27989402 5.24390038 97.19578481 7.38695373 96.58666992 11.17700195 C94.47475467 13.56466236 92.74947402 14.97013457 89.55746269 15.53800583 C87.0279394 15.68457025 84.52826183 15.69442995 81.99462891 15.6628418 C81.03472046 15.66663849 80.07481201 15.67043518 79.08581543 15.67434692 C75.9177975 15.68174702 72.75069987 15.6603785 69.58276367 15.63793945 C67.37988899 15.63555479 65.17701226 15.63464975 62.97413635 15.63516235 C58.3599065 15.63203535 53.74598758 15.61547627 49.13183594 15.58862305 C43.21451427 15.55462364 37.29753391 15.54699512 31.380126 15.54851341 C26.83255245 15.54796985 22.28505366 15.5370051 17.73750496 15.52251053 C15.55539579 15.51614261 13.37327816 15.51220365 11.1911602 15.51072311 C8.14373183 15.50639125 5.09666681 15.48889297 2.04931641 15.4675293 C1.14582962 15.46843567 0.24234283 15.46934204 -0.68852234 15.47027588 C-1.51979645 15.46174591 -2.35107056 15.45321594 -3.20753479 15.44442749 C-3.92741357 15.4410758 -4.64729235 15.43772411 -5.38898563 15.43427086 C-7.81078421 15.12649049 -9.36795943 14.50960423 -11.41333008 13.17700195 C-12.85083008 9.86450195 -12.85083008 9.86450195 -13.41333008 6.17700195 C-10.24595504 -0.76105765 -7.07186298 0.02014582 0 0 Z " fill="#FC5B6F" transform="translate(294.413330078125,339.822998046875)"/>
<path d="M0 0 C0.98858505 -0.0065712 1.9771701 -0.0131424 2.99571228 -0.01991272 C6.28254258 -0.0396993 9.56932709 -0.05132004 12.85620117 -0.0612793 C13.97561285 -0.06535482 15.09502453 -0.06943035 16.24835777 -0.07362938 C22.17273145 -0.09451272 28.09708181 -0.10880478 34.02148438 -0.11816406 C40.15199006 -0.12923491 46.28213341 -0.16363643 52.41251087 -0.20333576 C57.11619254 -0.22943776 61.81978705 -0.23785018 66.52353477 -0.24144554 C68.78382503 -0.2463279 71.04411097 -0.2579884 73.30433083 -0.27648354 C76.46490074 -0.30073883 79.62452245 -0.2999347 82.78515625 -0.29296875 C83.72297943 -0.30577881 84.66080261 -0.31858887 85.62704468 -0.33178711 C91.93470941 -0.2809934 91.93470941 -0.2809934 95.16410828 1.98762512 C97.27989402 5.24390038 97.19578481 7.38695373 96.58666992 11.17700195 C94.47475467 13.56466236 92.74947402 14.97013457 89.55746269 15.53800583 C87.0279394 15.68457025 84.52826183 15.69442995 81.99462891 15.6628418 C81.03472046 15.66663849 80.07481201 15.67043518 79.08581543 15.67434692 C75.9177975 15.68174702 72.75069987 15.6603785 69.58276367 15.63793945 C67.37988899 15.63555479 65.17701226 15.63464975 62.97413635 15.63516235 C58.3599065 15.63203535 53.74598758 15.61547627 49.13183594 15.58862305 C43.21451427 15.55462364 37.29753391 15.54699512 31.380126 15.54851341 C26.83255245 15.54796985 22.28505366 15.5370051 17.73750496 15.52251053 C15.55539579 15.51614261 13.37327816 15.51220365 11.1911602 15.51072311 C8.14373183 15.50639125 5.09666681 15.48889297 2.04931641 15.4675293 C1.14582962 15.46843567 0.24234283 15.46934204 -0.68852234 15.47027588 C-1.51979645 15.46174591 -2.35107056 15.45321594 -3.20753479 15.44442749 C-3.92741357 15.4410758 -4.64729235 15.43772411 -5.38898563 15.43427086 C-7.81078421 15.12649049 -9.36795943 14.50960423 -11.41333008 13.17700195 C-12.85083008 9.86450195 -12.85083008 9.86450195 -13.41333008 6.17700195 C-10.24595504 -0.76105765 -7.07186298 0.02014582 0 0 Z " fill="#FC5C70" transform="translate(294.413330078125,293.822998046875)"/>
</svg>
